<mxfile host="app.diagrams.net" modified="2021-12-15T10:35:15.964Z" agent="5.0 (Macintosh; Intel Mac OS X 10_15_7) AppleWebKit/537.36 (KHTML, like Gecko) Chrome/96.0.4664.110 Safari/537.36" etag="_BZMsRpqyQUQdkeb8RvO" version="15.9.6" type="github">
  <diagram id="hunALPwYAO61CZnnPAhh" name="Page-1">
    <mxGraphModel dx="1186" dy="654" grid="1" gridSize="10" guides="1" tooltips="1" connect="1" arrows="1" fold="1" page="1" pageScale="1" pageWidth="827" pageHeight="1169" math="0" shadow="0">
      <root>
        <mxCell id="0" />
        <mxCell id="1" parent="0" />
        <mxCell id="QPYpN62NB8-uVr394qq1-2" value="&lt;span style=&quot;color: rgb(51 , 153 , 255)&quot;&gt;package org.alibaba.nacos&lt;/span&gt;&lt;font color=&quot;#ff8000&quot;&gt;&lt;br&gt;@SpringBootApplication&lt;br&gt;&lt;/font&gt;Nacos" style="rounded=0;whiteSpace=wrap;html=1;" parent="1" vertex="1">
          <mxGeometry x="1430" y="40" width="210" height="60" as="geometry" />
        </mxCell>
        <mxCell id="zgKmjXe5RocedFzESMuj-3" value="" style="edgeStyle=orthogonalEdgeStyle;rounded=0;orthogonalLoop=1;jettySize=auto;html=1;" parent="1" source="zgKmjXe5RocedFzESMuj-1" target="zgKmjXe5RocedFzESMuj-2" edge="1">
          <mxGeometry relative="1" as="geometry" />
        </mxCell>
        <mxCell id="zgKmjXe5RocedFzESMuj-1" value="spring-cloud-starter-alibaba-nacos-discovery&lt;br&gt;META-INF/spring.factories" style="rounded=0;whiteSpace=wrap;html=1;fillColor=#d5e8d4;strokeColor=#82b366;" parent="1" vertex="1">
          <mxGeometry x="60" y="40" width="280" height="60" as="geometry" />
        </mxCell>
        <mxCell id="zgKmjXe5RocedFzESMuj-6" value="" style="edgeStyle=orthogonalEdgeStyle;rounded=0;orthogonalLoop=1;jettySize=auto;html=1;fontFamily=Helvetica;fontSize=12;fontColor=none;" parent="1" source="zgKmjXe5RocedFzESMuj-2" target="zgKmjXe5RocedFzESMuj-5" edge="1">
          <mxGeometry relative="1" as="geometry" />
        </mxCell>
        <mxCell id="zgKmjXe5RocedFzESMuj-2" value="&lt;font color=&quot;#009900&quot;&gt;@Configuration&lt;br&gt;&lt;/font&gt;NacosServiceRegistryAutoConfiguration&lt;br&gt;自动配置类" style="whiteSpace=wrap;html=1;rounded=0;" parent="1" vertex="1">
          <mxGeometry x="80" y="140" width="240" height="60" as="geometry" />
        </mxCell>
        <mxCell id="zgKmjXe5RocedFzESMuj-8" value="" style="edgeStyle=orthogonalEdgeStyle;rounded=0;orthogonalLoop=1;jettySize=auto;html=1;fontFamily=Helvetica;fontSize=12;fontColor=none;dashed=1;" parent="1" source="zgKmjXe5RocedFzESMuj-5" target="zgKmjXe5RocedFzESMuj-7" edge="1">
          <mxGeometry relative="1" as="geometry" />
        </mxCell>
        <mxCell id="zgKmjXe5RocedFzESMuj-9" value="implements" style="edgeLabel;html=1;align=center;verticalAlign=middle;resizable=0;points=[];fontSize=12;fontFamily=Helvetica;fontColor=none;" parent="zgKmjXe5RocedFzESMuj-8" vertex="1" connectable="0">
          <mxGeometry x="0.0385" y="-3" relative="1" as="geometry">
            <mxPoint x="-4" y="-3" as="offset" />
          </mxGeometry>
        </mxCell>
        <mxCell id="zgKmjXe5RocedFzESMuj-14" value="" style="edgeStyle=orthogonalEdgeStyle;rounded=0;orthogonalLoop=1;jettySize=auto;html=1;fontFamily=Helvetica;fontSize=12;fontColor=none;" parent="1" source="zgKmjXe5RocedFzESMuj-5" target="zgKmjXe5RocedFzESMuj-13" edge="1">
          <mxGeometry relative="1" as="geometry" />
        </mxCell>
        <mxCell id="zgKmjXe5RocedFzESMuj-5" value="&lt;font color=&quot;#009900&quot;&gt;@Bean&lt;br&gt;&lt;/font&gt;NacosAutoServiceRegistration" style="whiteSpace=wrap;html=1;rounded=0;" parent="1" vertex="1">
          <mxGeometry x="90" y="240" width="220" height="60" as="geometry" />
        </mxCell>
        <mxCell id="zgKmjXe5RocedFzESMuj-23" style="edgeStyle=orthogonalEdgeStyle;rounded=0;orthogonalLoop=1;jettySize=auto;html=1;entryX=1;entryY=0.5;entryDx=0;entryDy=0;fontFamily=Helvetica;fontSize=12;fontColor=#FF0000;dashed=1;" parent="1" source="zgKmjXe5RocedFzESMuj-7" target="zgKmjXe5RocedFzESMuj-13" edge="1">
          <mxGeometry relative="1" as="geometry">
            <Array as="points">
              <mxPoint x="557" y="370" />
            </Array>
          </mxGeometry>
        </mxCell>
        <mxCell id="zgKmjXe5RocedFzESMuj-24" value="override" style="edgeLabel;html=1;align=center;verticalAlign=middle;resizable=0;points=[];fontSize=12;fontFamily=Helvetica;fontColor=#000000;" parent="zgKmjXe5RocedFzESMuj-23" vertex="1" connectable="0">
          <mxGeometry x="-0.1069" y="-1" relative="1" as="geometry">
            <mxPoint as="offset" />
          </mxGeometry>
        </mxCell>
        <mxCell id="zgKmjXe5RocedFzESMuj-7" value="ApplicationListener&amp;lt;WebServerInitializedEvent&amp;gt;" style="whiteSpace=wrap;html=1;rounded=0;dashed=1;" parent="1" vertex="1">
          <mxGeometry x="414" y="240" width="286" height="60" as="geometry" />
        </mxCell>
        <mxCell id="zgKmjXe5RocedFzESMuj-18" value="bind()" style="edgeStyle=orthogonalEdgeStyle;rounded=0;orthogonalLoop=1;jettySize=auto;html=1;fontFamily=Helvetica;fontSize=12;fontColor=#FF0000;" parent="1" source="zgKmjXe5RocedFzESMuj-13" target="zgKmjXe5RocedFzESMuj-17" edge="1">
          <mxGeometry relative="1" as="geometry" />
        </mxCell>
        <mxCell id="zgKmjXe5RocedFzESMuj-13" value="&lt;font color=&quot;#009900&quot;&gt;@Override&lt;/font&gt;&lt;br&gt;AbstractAutoServiceRegistration#&lt;font color=&quot;#ff0000&quot;&gt;onApplicationEvent&lt;/font&gt;" style="whiteSpace=wrap;html=1;rounded=0;" parent="1" vertex="1">
          <mxGeometry x="35" y="340" width="330" height="60" as="geometry" />
        </mxCell>
        <mxCell id="zgKmjXe5RocedFzESMuj-20" value="" style="edgeStyle=orthogonalEdgeStyle;rounded=0;orthogonalLoop=1;jettySize=auto;html=1;fontFamily=Helvetica;fontSize=12;fontColor=#FF0000;" parent="1" source="zgKmjXe5RocedFzESMuj-17" target="zgKmjXe5RocedFzESMuj-19" edge="1">
          <mxGeometry relative="1" as="geometry" />
        </mxCell>
        <mxCell id="zgKmjXe5RocedFzESMuj-22" value="register()" style="edgeLabel;html=1;align=center;verticalAlign=middle;resizable=0;points=[];fontSize=12;fontFamily=Helvetica;fontColor=#FF0000;" parent="zgKmjXe5RocedFzESMuj-20" vertex="1" connectable="0">
          <mxGeometry x="-0.2571" y="2" relative="1" as="geometry">
            <mxPoint as="offset" />
          </mxGeometry>
        </mxCell>
        <mxCell id="zgKmjXe5RocedFzESMuj-17" value="AbstractAutoServiceRegistration#&lt;font color=&quot;#ff0000&quot;&gt;start&lt;/font&gt;" style="whiteSpace=wrap;html=1;rounded=0;" parent="1" vertex="1">
          <mxGeometry x="85" y="460" width="230" height="60" as="geometry" />
        </mxCell>
        <mxCell id="zgKmjXe5RocedFzESMuj-28" value="" style="edgeStyle=orthogonalEdgeStyle;rounded=0;orthogonalLoop=1;jettySize=auto;html=1;dashed=1;fontFamily=Helvetica;fontSize=12;fontColor=#FF0000;" parent="1" source="zgKmjXe5RocedFzESMuj-19" target="zgKmjXe5RocedFzESMuj-27" edge="1">
          <mxGeometry relative="1" as="geometry" />
        </mxCell>
        <mxCell id="zgKmjXe5RocedFzESMuj-19" value="NacosAutoServiceRegistration#&lt;font color=&quot;#ff0000&quot;&gt;register&lt;/font&gt;" style="whiteSpace=wrap;html=1;rounded=0;" parent="1" vertex="1">
          <mxGeometry x="80" y="580" width="240" height="60" as="geometry" />
        </mxCell>
        <mxCell id="zgKmjXe5RocedFzESMuj-30" value="" style="edgeStyle=orthogonalEdgeStyle;rounded=0;orthogonalLoop=1;jettySize=auto;html=1;fontFamily=Helvetica;fontSize=12;fontColor=#009900;" parent="1" source="zgKmjXe5RocedFzESMuj-27" target="zgKmjXe5RocedFzESMuj-29" edge="1">
          <mxGeometry relative="1" as="geometry" />
        </mxCell>
        <mxCell id="zgKmjXe5RocedFzESMuj-27" value="namingService.registerInstance(serviceId, group, instance)&lt;br&gt;完成客户端像服务端进行调用" style="whiteSpace=wrap;html=1;rounded=0;fillColor=#dae8fc;strokeColor=#6c8ebf;" parent="1" vertex="1">
          <mxGeometry x="25" y="700" width="350" height="60" as="geometry" />
        </mxCell>
        <mxCell id="zgKmjXe5RocedFzESMuj-32" style="edgeStyle=orthogonalEdgeStyle;rounded=0;orthogonalLoop=1;jettySize=auto;html=1;exitX=1;exitY=0.5;exitDx=0;exitDy=0;fontFamily=Helvetica;fontSize=12;fontColor=#000000;entryX=0;entryY=0.5;entryDx=0;entryDy=0;" parent="1" source="zgKmjXe5RocedFzESMuj-29" target="zgKmjXe5RocedFzESMuj-31" edge="1">
          <mxGeometry relative="1" as="geometry">
            <mxPoint x="750" y="630" as="targetPoint" />
            <Array as="points">
              <mxPoint x="780" y="850" />
              <mxPoint x="780" y="70" />
            </Array>
          </mxGeometry>
        </mxCell>
        <mxCell id="zgKmjXe5RocedFzESMuj-29" value="POST /nacos/v1/ns/instance&lt;br&gt;注册实例" style="whiteSpace=wrap;html=1;rounded=0;fillColor=#f8cecc;strokeColor=#b85450;" parent="1" vertex="1">
          <mxGeometry x="85" y="820" width="230" height="60" as="geometry" />
        </mxCell>
        <mxCell id="zgKmjXe5RocedFzESMuj-34" value="" style="edgeStyle=orthogonalEdgeStyle;rounded=0;orthogonalLoop=1;jettySize=auto;html=1;fontFamily=Helvetica;fontSize=12;fontColor=#000000;" parent="1" source="zgKmjXe5RocedFzESMuj-31" target="zgKmjXe5RocedFzESMuj-33" edge="1">
          <mxGeometry relative="1" as="geometry" />
        </mxCell>
        <mxCell id="zgKmjXe5RocedFzESMuj-35" value="Instance instance = parseInstance(request)" style="edgeLabel;html=1;align=center;verticalAlign=middle;resizable=0;points=[];fontSize=12;fontFamily=Helvetica;fontColor=#000000;" parent="zgKmjXe5RocedFzESMuj-34" vertex="1" connectable="0">
          <mxGeometry x="-0.125" y="-1" relative="1" as="geometry">
            <mxPoint as="offset" />
          </mxGeometry>
        </mxCell>
        <mxCell id="zgKmjXe5RocedFzESMuj-31" value="&lt;font color=&quot;#000000&quot;&gt;InstanceController#&lt;/font&gt;&lt;font color=&quot;#ff0000&quot;&gt;register&lt;/font&gt;" style="rounded=0;whiteSpace=wrap;html=1;fontFamily=Helvetica;fontSize=12;fontColor=#009900;fillColor=none;gradientColor=none;" parent="1" vertex="1">
          <mxGeometry x="950" y="40" width="220" height="60" as="geometry" />
        </mxCell>
        <mxCell id="zgKmjXe5RocedFzESMuj-37" value="" style="edgeStyle=orthogonalEdgeStyle;rounded=0;orthogonalLoop=1;jettySize=auto;html=1;fontFamily=Helvetica;fontSize=12;fontColor=#000000;" parent="1" source="zgKmjXe5RocedFzESMuj-33" target="zgKmjXe5RocedFzESMuj-36" edge="1">
          <mxGeometry relative="1" as="geometry" />
        </mxCell>
        <mxCell id="zgKmjXe5RocedFzESMuj-38" value="createEmptyService&lt;br&gt;开启心跳检测" style="edgeLabel;html=1;align=center;verticalAlign=middle;resizable=0;points=[];fontSize=12;fontFamily=Helvetica;fontColor=#000000;" parent="zgKmjXe5RocedFzESMuj-37" vertex="1" connectable="0">
          <mxGeometry x="-0.3652" y="-4" relative="1" as="geometry">
            <mxPoint x="37" y="-4" as="offset" />
          </mxGeometry>
        </mxCell>
        <mxCell id="zgKmjXe5RocedFzESMuj-100" value="" style="edgeStyle=orthogonalEdgeStyle;rounded=0;orthogonalLoop=1;jettySize=auto;html=1;fontFamily=Helvetica;fontSize=12;fontColor=#000000;" parent="1" source="zgKmjXe5RocedFzESMuj-33" target="zgKmjXe5RocedFzESMuj-99" edge="1">
          <mxGeometry relative="1" as="geometry" />
        </mxCell>
        <mxCell id="zgKmjXe5RocedFzESMuj-101" value="添加实例" style="edgeLabel;html=1;align=center;verticalAlign=middle;resizable=0;points=[];fontSize=12;fontFamily=Helvetica;fontColor=#000000;" parent="zgKmjXe5RocedFzESMuj-100" vertex="1" connectable="0">
          <mxGeometry x="0.05" y="-2" relative="1" as="geometry">
            <mxPoint as="offset" />
          </mxGeometry>
        </mxCell>
        <mxCell id="zgKmjXe5RocedFzESMuj-33" value="&lt;font color=&quot;#000000&quot;&gt;serviceManager.&lt;/font&gt;&lt;font color=&quot;#ff0000&quot;&gt;registerInstance&lt;/font&gt;&lt;font color=&quot;#000000&quot;&gt;(namespaceId, serviceName, instance);&lt;/font&gt;" style="whiteSpace=wrap;html=1;fillColor=none;fontColor=#009900;rounded=0;gradientColor=none;" parent="1" vertex="1">
          <mxGeometry x="850" y="180" width="420" height="60" as="geometry" />
        </mxCell>
        <mxCell id="zgKmjXe5RocedFzESMuj-40" value="" style="edgeStyle=orthogonalEdgeStyle;rounded=0;orthogonalLoop=1;jettySize=auto;html=1;fontFamily=Helvetica;fontSize=12;fontColor=#000000;" parent="1" source="zgKmjXe5RocedFzESMuj-36" target="zgKmjXe5RocedFzESMuj-39" edge="1">
          <mxGeometry relative="1" as="geometry" />
        </mxCell>
        <mxCell id="zgKmjXe5RocedFzESMuj-36" value="&lt;font color=&quot;#000000&quot;&gt;Service service = getService(namespaceId, serviceName)&lt;/font&gt;" style="whiteSpace=wrap;html=1;fillColor=none;fontColor=#009900;rounded=0;gradientColor=none;" parent="1" vertex="1">
          <mxGeometry x="1450" y="180" width="350" height="60" as="geometry" />
        </mxCell>
        <mxCell id="zgKmjXe5RocedFzESMuj-46" value="" style="edgeStyle=orthogonalEdgeStyle;rounded=0;orthogonalLoop=1;jettySize=auto;html=1;fontFamily=Helvetica;fontSize=12;fontColor=#000000;" parent="1" source="zgKmjXe5RocedFzESMuj-39" target="zgKmjXe5RocedFzESMuj-45" edge="1">
          <mxGeometry relative="1" as="geometry" />
        </mxCell>
        <mxCell id="zgKmjXe5RocedFzESMuj-39" value="&lt;span style=&quot;color: rgb(0 , 0 , 0) ; background-color: rgb(255 , 255 , 255)&quot;&gt;从注册表中获取服务&lt;/span&gt;&lt;br style=&quot;color: rgb(0 , 0 , 0)&quot;&gt;&lt;span style=&quot;color: rgb(0 , 0 , 0) ; background-color: rgb(255 , 255 , 255)&quot;&gt;Service service = serviceMap.get(namespaceId)&lt;/span&gt;" style="whiteSpace=wrap;html=1;fillColor=none;fontColor=#009900;rounded=0;gradientColor=none;" parent="1" vertex="1">
          <mxGeometry x="1482.5" y="280" width="285" height="60" as="geometry" />
        </mxCell>
        <mxCell id="zgKmjXe5RocedFzESMuj-48" value="" style="edgeStyle=orthogonalEdgeStyle;rounded=0;orthogonalLoop=1;jettySize=auto;html=1;fontFamily=Helvetica;fontSize=12;fontColor=#000000;" parent="1" source="zgKmjXe5RocedFzESMuj-45" target="zgKmjXe5RocedFzESMuj-47" edge="1">
          <mxGeometry relative="1" as="geometry" />
        </mxCell>
        <mxCell id="zgKmjXe5RocedFzESMuj-49" value="是" style="edgeLabel;html=1;align=center;verticalAlign=middle;resizable=0;points=[];fontSize=12;fontFamily=Helvetica;fontColor=#000000;" parent="zgKmjXe5RocedFzESMuj-48" vertex="1" connectable="0">
          <mxGeometry x="-0.3667" relative="1" as="geometry">
            <mxPoint as="offset" />
          </mxGeometry>
        </mxCell>
        <mxCell id="zgKmjXe5RocedFzESMuj-45" value="&lt;span style=&quot;color: rgb(0 , 0 , 0) ; background-color: rgb(255 , 255 , 255)&quot;&gt;&amp;nbsp;service == null&lt;/span&gt;" style="rhombus;whiteSpace=wrap;html=1;fillColor=none;fontColor=#009900;rounded=0;gradientColor=none;" parent="1" vertex="1">
          <mxGeometry x="1537.5" y="380" width="175" height="80" as="geometry" />
        </mxCell>
        <mxCell id="zgKmjXe5RocedFzESMuj-51" value="" style="edgeStyle=orthogonalEdgeStyle;rounded=0;orthogonalLoop=1;jettySize=auto;html=1;fontFamily=Helvetica;fontSize=12;fontColor=#000000;" parent="1" source="zgKmjXe5RocedFzESMuj-47" target="zgKmjXe5RocedFzESMuj-50" edge="1">
          <mxGeometry relative="1" as="geometry" />
        </mxCell>
        <mxCell id="zgKmjXe5RocedFzESMuj-47" value="&lt;font color=&quot;#000000&quot;&gt;创建 Service&lt;/font&gt;" style="whiteSpace=wrap;html=1;fillColor=none;fontColor=#009900;rounded=0;gradientColor=none;" parent="1" vertex="1">
          <mxGeometry x="1565" y="520" width="120" height="60" as="geometry" />
        </mxCell>
        <mxCell id="zgKmjXe5RocedFzESMuj-54" value="" style="edgeStyle=orthogonalEdgeStyle;rounded=0;orthogonalLoop=1;jettySize=auto;html=1;fontFamily=Helvetica;fontSize=12;fontColor=#000000;" parent="1" source="zgKmjXe5RocedFzESMuj-50" target="zgKmjXe5RocedFzESMuj-53" edge="1">
          <mxGeometry relative="1" as="geometry" />
        </mxCell>
        <mxCell id="zgKmjXe5RocedFzESMuj-55" value="加入到&amp;nbsp;serviceMap 中" style="edgeLabel;html=1;align=center;verticalAlign=middle;resizable=0;points=[];fontSize=12;fontFamily=Helvetica;fontColor=#000000;" parent="zgKmjXe5RocedFzESMuj-54" vertex="1" connectable="0">
          <mxGeometry x="-0.025" y="1" relative="1" as="geometry">
            <mxPoint as="offset" />
          </mxGeometry>
        </mxCell>
        <mxCell id="zgKmjXe5RocedFzESMuj-50" value="&lt;font color=&quot;#000000&quot;&gt;putServiceAndInit(service);&lt;/font&gt;" style="whiteSpace=wrap;html=1;fillColor=none;fontColor=#009900;rounded=0;gradientColor=none;" parent="1" vertex="1">
          <mxGeometry x="1532.5" y="620" width="185" height="60" as="geometry" />
        </mxCell>
        <mxCell id="zgKmjXe5RocedFzESMuj-57" value="" style="edgeStyle=orthogonalEdgeStyle;rounded=0;orthogonalLoop=1;jettySize=auto;html=1;fontFamily=Helvetica;fontSize=12;fontColor=#000000;" parent="1" source="zgKmjXe5RocedFzESMuj-53" target="zgKmjXe5RocedFzESMuj-56" edge="1">
          <mxGeometry relative="1" as="geometry" />
        </mxCell>
        <mxCell id="zgKmjXe5RocedFzESMuj-58" value="启动健康检查定时任务" style="edgeLabel;html=1;align=center;verticalAlign=middle;resizable=0;points=[];fontSize=12;fontFamily=Helvetica;fontColor=#000000;" parent="zgKmjXe5RocedFzESMuj-57" vertex="1" connectable="0">
          <mxGeometry x="-0.125" relative="1" as="geometry">
            <mxPoint as="offset" />
          </mxGeometry>
        </mxCell>
        <mxCell id="zgKmjXe5RocedFzESMuj-53" value="&lt;font color=&quot;#000000&quot;&gt;putService(service);&lt;/font&gt;&lt;br&gt;&lt;font color=&quot;#3399ff&quot;&gt;此时的 service 是空的，没有 instance 实例&lt;/font&gt;" style="whiteSpace=wrap;html=1;fillColor=none;fontColor=#009900;rounded=0;gradientColor=none;" parent="1" vertex="1">
          <mxGeometry x="1502.5" y="760" width="245" height="60" as="geometry" />
        </mxCell>
        <mxCell id="zgKmjXe5RocedFzESMuj-60" value="" style="edgeStyle=orthogonalEdgeStyle;rounded=0;orthogonalLoop=1;jettySize=auto;html=1;fontFamily=Helvetica;fontSize=12;fontColor=#3399FF;" parent="1" source="zgKmjXe5RocedFzESMuj-56" target="zgKmjXe5RocedFzESMuj-59" edge="1">
          <mxGeometry relative="1" as="geometry" />
        </mxCell>
        <mxCell id="zgKmjXe5RocedFzESMuj-61" value="开启定时任务，每 5s 执行一次" style="edgeLabel;html=1;align=center;verticalAlign=middle;resizable=0;points=[];fontSize=12;fontFamily=Helvetica;fontColor=#000000;" parent="zgKmjXe5RocedFzESMuj-60" vertex="1" connectable="0">
          <mxGeometry x="-0.12" y="1" relative="1" as="geometry">
            <mxPoint as="offset" />
          </mxGeometry>
        </mxCell>
        <mxCell id="2PmmHMX1RF9NsNLcKvbn-2" value="" style="edgeStyle=orthogonalEdgeStyle;rounded=0;orthogonalLoop=1;jettySize=auto;html=1;fontColor=#000000;" edge="1" parent="1" source="zgKmjXe5RocedFzESMuj-56" target="2PmmHMX1RF9NsNLcKvbn-1">
          <mxGeometry relative="1" as="geometry" />
        </mxCell>
        <mxCell id="2PmmHMX1RF9NsNLcKvbn-3" value="添加 listener" style="edgeLabel;html=1;align=center;verticalAlign=middle;resizable=0;points=[];fontColor=#000000;" vertex="1" connectable="0" parent="2PmmHMX1RF9NsNLcKvbn-2">
          <mxGeometry x="0.05" y="1" relative="1" as="geometry">
            <mxPoint as="offset" />
          </mxGeometry>
        </mxCell>
        <mxCell id="zgKmjXe5RocedFzESMuj-56" value="&lt;font color=&quot;#000000&quot;&gt;service.init()&lt;/font&gt;" style="whiteSpace=wrap;html=1;fillColor=none;fontColor=#009900;rounded=0;gradientColor=none;" parent="1" vertex="1">
          <mxGeometry x="1565" y="900" width="120" height="60" as="geometry" />
        </mxCell>
        <mxCell id="zgKmjXe5RocedFzESMuj-65" value="" style="edgeStyle=orthogonalEdgeStyle;rounded=0;orthogonalLoop=1;jettySize=auto;html=1;fontFamily=Helvetica;fontSize=12;fontColor=#000000;" parent="1" source="zgKmjXe5RocedFzESMuj-59" target="zgKmjXe5RocedFzESMuj-64" edge="1">
          <mxGeometry relative="1" as="geometry" />
        </mxCell>
        <mxCell id="zgKmjXe5RocedFzESMuj-59" value="&lt;font color=&quot;#000000&quot;&gt;GlobalExecutor.scheduleNamingHealth(task, 5000, 5000, TimeUnit.MILLISECONDS)&lt;/font&gt;" style="whiteSpace=wrap;html=1;fillColor=none;fontColor=#009900;rounded=0;gradientColor=none;" parent="1" vertex="1">
          <mxGeometry x="1929.35" y="900" width="302.5" height="60" as="geometry" />
        </mxCell>
        <mxCell id="zgKmjXe5RocedFzESMuj-67" value="" style="edgeStyle=orthogonalEdgeStyle;rounded=0;orthogonalLoop=1;jettySize=auto;html=1;fontFamily=Helvetica;fontSize=12;fontColor=#000000;exitX=0.5;exitY=1;exitDx=0;exitDy=0;" parent="1" source="zgKmjXe5RocedFzESMuj-77" target="zgKmjXe5RocedFzESMuj-70" edge="1">
          <mxGeometry relative="1" as="geometry">
            <mxPoint x="2185.6" y="1200" as="sourcePoint" />
            <mxPoint x="2080.6" y="1225" as="targetPoint" />
            <Array as="points">
              <mxPoint x="2080.6" y="1180" />
              <mxPoint x="2080.6" y="1180" />
            </Array>
          </mxGeometry>
        </mxCell>
        <mxCell id="zgKmjXe5RocedFzESMuj-68" value="循环所有实例" style="edgeLabel;html=1;align=center;verticalAlign=middle;resizable=0;points=[];fontSize=12;fontFamily=Helvetica;fontColor=#000000;" parent="zgKmjXe5RocedFzESMuj-67" vertex="1" connectable="0">
          <mxGeometry x="-0.1733" y="-1" relative="1" as="geometry">
            <mxPoint as="offset" />
          </mxGeometry>
        </mxCell>
        <mxCell id="zgKmjXe5RocedFzESMuj-78" value="" style="edgeStyle=orthogonalEdgeStyle;rounded=0;orthogonalLoop=1;jettySize=auto;html=1;fontFamily=Helvetica;fontSize=12;fontColor=#000000;" parent="1" source="zgKmjXe5RocedFzESMuj-64" target="zgKmjXe5RocedFzESMuj-77" edge="1">
          <mxGeometry relative="1" as="geometry" />
        </mxCell>
        <mxCell id="zgKmjXe5RocedFzESMuj-64" value="ClientBeatCheckTask&amp;nbsp;&lt;span style=&quot;font-family: &amp;#34;jetbrains mono&amp;#34; , monospace ; font-size: 9.8pt ; color: rgb(204 , 120 , 50)&quot;&gt;implements &lt;/span&gt;&lt;span style=&quot;font-family: &amp;#34;jetbrains mono&amp;#34; , monospace ; font-size: 9.8pt&quot;&gt;&lt;font color=&quot;#000000&quot;&gt;Runnable&lt;/font&gt;&lt;/span&gt;" style="whiteSpace=wrap;html=1;fillColor=none;fontColor=#009900;rounded=0;gradientColor=none;" parent="1" vertex="1">
          <mxGeometry x="1929.35" y="1010" width="302.5" height="40" as="geometry" />
        </mxCell>
        <mxCell id="zgKmjXe5RocedFzESMuj-72" value="" style="edgeStyle=orthogonalEdgeStyle;rounded=0;orthogonalLoop=1;jettySize=auto;html=1;fontFamily=Helvetica;fontSize=12;fontColor=#000000;" parent="1" source="zgKmjXe5RocedFzESMuj-70" target="zgKmjXe5RocedFzESMuj-71" edge="1">
          <mxGeometry relative="1" as="geometry" />
        </mxCell>
        <mxCell id="zgKmjXe5RocedFzESMuj-73" value="是" style="edgeLabel;html=1;align=center;verticalAlign=middle;resizable=0;points=[];fontSize=12;fontFamily=Helvetica;fontColor=#000000;" parent="zgKmjXe5RocedFzESMuj-72" vertex="1" connectable="0">
          <mxGeometry x="-0.32" y="-3" relative="1" as="geometry">
            <mxPoint x="3" y="3" as="offset" />
          </mxGeometry>
        </mxCell>
        <mxCell id="zgKmjXe5RocedFzESMuj-79" style="edgeStyle=orthogonalEdgeStyle;rounded=0;orthogonalLoop=1;jettySize=auto;html=1;exitX=1;exitY=0.5;exitDx=0;exitDy=0;fontFamily=Helvetica;fontSize=12;fontColor=#000000;entryX=1;entryY=0.5;entryDx=0;entryDy=0;" parent="1" source="zgKmjXe5RocedFzESMuj-70" target="zgKmjXe5RocedFzESMuj-81" edge="1">
          <mxGeometry relative="1" as="geometry">
            <mxPoint x="2225.6" y="1480" as="targetPoint" />
            <Array as="points">
              <mxPoint x="2235.6" y="1263" />
              <mxPoint x="2235.6" y="1465" />
            </Array>
          </mxGeometry>
        </mxCell>
        <mxCell id="zgKmjXe5RocedFzESMuj-86" value="否" style="edgeLabel;html=1;align=center;verticalAlign=middle;resizable=0;points=[];fontSize=12;fontFamily=Helvetica;fontColor=#000000;" parent="zgKmjXe5RocedFzESMuj-79" vertex="1" connectable="0">
          <mxGeometry x="-0.1805" y="3" relative="1" as="geometry">
            <mxPoint x="-4" as="offset" />
          </mxGeometry>
        </mxCell>
        <mxCell id="zgKmjXe5RocedFzESMuj-70" value="&lt;span style=&quot;color: rgb(0 , 153 , 0)&quot;&gt;当前时间 - 最后一次心跳时间 &amp;gt; 15s&lt;/span&gt;" style="rhombus;whiteSpace=wrap;html=1;fontFamily=Helvetica;fontSize=12;fontColor=#000000;fillColor=none;gradientColor=none;" parent="1" vertex="1">
          <mxGeometry x="1963.1" y="1225" width="235" height="75" as="geometry" />
        </mxCell>
        <mxCell id="zgKmjXe5RocedFzESMuj-71" value="instance.setHealthy(false);" style="whiteSpace=wrap;html=1;fillColor=none;fontColor=#000000;gradientColor=none;" parent="1" vertex="1">
          <mxGeometry x="1988.1" y="1360" width="185" height="60" as="geometry" />
        </mxCell>
        <mxCell id="zgKmjXe5RocedFzESMuj-77" value="&lt;font color=&quot;#000000&quot;&gt;run();&lt;/font&gt;" style="whiteSpace=wrap;html=1;fillColor=none;fontColor=#009900;rounded=0;gradientColor=none;" parent="1" vertex="1">
          <mxGeometry x="2020.6" y="1090" width="120" height="60" as="geometry" />
        </mxCell>
        <mxCell id="zgKmjXe5RocedFzESMuj-85" value="" style="edgeStyle=orthogonalEdgeStyle;rounded=0;orthogonalLoop=1;jettySize=auto;html=1;fontFamily=Helvetica;fontSize=12;fontColor=#000000;entryX=0.5;entryY=0;entryDx=0;entryDy=0;" parent="1" source="zgKmjXe5RocedFzESMuj-81" target="zgKmjXe5RocedFzESMuj-87" edge="1">
          <mxGeometry relative="1" as="geometry">
            <mxPoint x="2080.6" y="1520" as="targetPoint" />
          </mxGeometry>
        </mxCell>
        <mxCell id="zgKmjXe5RocedFzESMuj-81" value="循环所有实例" style="text;html=1;strokeColor=none;fillColor=none;align=center;verticalAlign=middle;whiteSpace=wrap;rounded=0;fontFamily=Helvetica;fontSize=12;fontColor=#000000;" parent="1" vertex="1">
          <mxGeometry x="2030.6" y="1450" width="100" height="30" as="geometry" />
        </mxCell>
        <mxCell id="zgKmjXe5RocedFzESMuj-82" value="" style="edgeStyle=orthogonalEdgeStyle;rounded=0;orthogonalLoop=1;jettySize=auto;html=1;fontFamily=Helvetica;fontSize=12;fontColor=#000000;endArrow=none;" parent="1" source="zgKmjXe5RocedFzESMuj-71" target="zgKmjXe5RocedFzESMuj-81" edge="1">
          <mxGeometry relative="1" as="geometry">
            <mxPoint x="2080.6" y="1435" as="sourcePoint" />
            <mxPoint x="2080.6" y="1515" as="targetPoint" />
          </mxGeometry>
        </mxCell>
        <mxCell id="zgKmjXe5RocedFzESMuj-90" value="" style="edgeStyle=orthogonalEdgeStyle;rounded=0;orthogonalLoop=1;jettySize=auto;html=1;fontFamily=Helvetica;fontSize=12;fontColor=#000000;" parent="1" source="zgKmjXe5RocedFzESMuj-87" target="zgKmjXe5RocedFzESMuj-89" edge="1">
          <mxGeometry relative="1" as="geometry" />
        </mxCell>
        <mxCell id="zgKmjXe5RocedFzESMuj-91" value="否" style="edgeLabel;html=1;align=center;verticalAlign=middle;resizable=0;points=[];fontSize=12;fontFamily=Helvetica;fontColor=#000000;" parent="zgKmjXe5RocedFzESMuj-90" vertex="1" connectable="0">
          <mxGeometry x="-0.1111" relative="1" as="geometry">
            <mxPoint as="offset" />
          </mxGeometry>
        </mxCell>
        <mxCell id="zgKmjXe5RocedFzESMuj-87" value="instance.isMarked()" style="rhombus;whiteSpace=wrap;html=1;fontFamily=Helvetica;fontSize=12;fontColor=#000000;fillColor=none;gradientColor=none;" parent="1" vertex="1">
          <mxGeometry x="2003.1" y="1500" width="155" height="70" as="geometry" />
        </mxCell>
        <mxCell id="zgKmjXe5RocedFzESMuj-93" value="" style="edgeStyle=orthogonalEdgeStyle;rounded=0;orthogonalLoop=1;jettySize=auto;html=1;fontFamily=Helvetica;fontSize=12;fontColor=#000000;" parent="1" source="zgKmjXe5RocedFzESMuj-89" target="zgKmjXe5RocedFzESMuj-92" edge="1">
          <mxGeometry relative="1" as="geometry" />
        </mxCell>
        <mxCell id="zgKmjXe5RocedFzESMuj-94" value="是" style="edgeLabel;html=1;align=center;verticalAlign=middle;resizable=0;points=[];fontSize=12;fontFamily=Helvetica;fontColor=#000000;" parent="zgKmjXe5RocedFzESMuj-93" vertex="1" connectable="0">
          <mxGeometry x="-0.2" relative="1" as="geometry">
            <mxPoint as="offset" />
          </mxGeometry>
        </mxCell>
        <mxCell id="zgKmjXe5RocedFzESMuj-89" value="&lt;span style=&quot;color: rgb(0 , 153 , 0)&quot;&gt;当前时间 - 最后一次心跳时间 &amp;gt; 30s&lt;/span&gt;" style="rhombus;whiteSpace=wrap;html=1;fillColor=none;fontColor=#000000;gradientColor=none;" parent="1" vertex="1">
          <mxGeometry x="1958.1" y="1624" width="245" height="95" as="geometry" />
        </mxCell>
        <mxCell id="zgKmjXe5RocedFzESMuj-95" style="edgeStyle=orthogonalEdgeStyle;rounded=0;orthogonalLoop=1;jettySize=auto;html=1;exitX=0;exitY=0.5;exitDx=0;exitDy=0;fontFamily=Helvetica;fontSize=12;fontColor=#000000;entryX=0;entryY=0.5;entryDx=0;entryDy=0;" parent="1" source="zgKmjXe5RocedFzESMuj-92" target="zgKmjXe5RocedFzESMuj-77" edge="1">
          <mxGeometry relative="1" as="geometry">
            <mxPoint x="1855.6" y="1420" as="targetPoint" />
            <Array as="points">
              <mxPoint x="1925.6" y="1790" />
              <mxPoint x="1925.6" y="1120" />
            </Array>
          </mxGeometry>
        </mxCell>
        <mxCell id="zgKmjXe5RocedFzESMuj-97" style="edgeStyle=orthogonalEdgeStyle;rounded=0;orthogonalLoop=1;jettySize=auto;html=1;exitX=1;exitY=0.5;exitDx=0;exitDy=0;entryX=0;entryY=0.5;entryDx=0;entryDy=0;fontFamily=Helvetica;fontSize=12;fontColor=#000000;dashed=1;" parent="1" source="zgKmjXe5RocedFzESMuj-92" target="zgKmjXe5RocedFzESMuj-96" edge="1">
          <mxGeometry relative="1" as="geometry" />
        </mxCell>
        <mxCell id="zgKmjXe5RocedFzESMuj-98" value="async" style="edgeLabel;html=1;align=center;verticalAlign=middle;resizable=0;points=[];fontSize=12;fontFamily=Helvetica;fontColor=#000000;" parent="zgKmjXe5RocedFzESMuj-97" vertex="1" connectable="0">
          <mxGeometry x="0.0133" y="1" relative="1" as="geometry">
            <mxPoint as="offset" />
          </mxGeometry>
        </mxCell>
        <mxCell id="zgKmjXe5RocedFzESMuj-92" value="deleteIp(instance)&lt;br&gt;服务剔除" style="whiteSpace=wrap;html=1;fillColor=none;fontColor=#000000;gradientColor=none;" parent="1" vertex="1">
          <mxGeometry x="2020.6" y="1760" width="120" height="60" as="geometry" />
        </mxCell>
        <mxCell id="zgKmjXe5RocedFzESMuj-96" value="DELETE /nacos/v1/ns/instance" style="whiteSpace=wrap;html=1;rounded=0;fillColor=#f8cecc;strokeColor=#b85450;" parent="1" vertex="1">
          <mxGeometry x="2215.6" y="1760" width="230" height="60" as="geometry" />
        </mxCell>
        <mxCell id="zgKmjXe5RocedFzESMuj-108" style="edgeStyle=orthogonalEdgeStyle;rounded=0;orthogonalLoop=1;jettySize=auto;html=1;exitX=0.5;exitY=1;exitDx=0;exitDy=0;entryX=0.5;entryY=0;entryDx=0;entryDy=0;fontFamily=Helvetica;fontSize=12;fontColor=#000000;" parent="1" source="zgKmjXe5RocedFzESMuj-99" target="zgKmjXe5RocedFzESMuj-107" edge="1">
          <mxGeometry relative="1" as="geometry" />
        </mxCell>
        <mxCell id="zgKmjXe5RocedFzESMuj-99" value="&lt;font color=&quot;#ff0000&quot;&gt;addInstance&lt;/font&gt;&lt;font color=&quot;#000000&quot;&gt;(namespaceId, serviceName, instance.isEphemeral(), instance);&lt;/font&gt;" style="whiteSpace=wrap;html=1;fillColor=none;fontColor=#009900;rounded=0;gradientColor=none;" parent="1" vertex="1">
          <mxGeometry x="845" y="290" width="430" height="70" as="geometry" />
        </mxCell>
        <mxCell id="zgKmjXe5RocedFzESMuj-126" style="edgeStyle=orthogonalEdgeStyle;rounded=0;orthogonalLoop=1;jettySize=auto;html=1;exitX=0.5;exitY=1;exitDx=0;exitDy=0;fontFamily=Helvetica;fontSize=12;fontColor=#FF0000;" parent="1" source="zgKmjXe5RocedFzESMuj-102" target="zgKmjXe5RocedFzESMuj-125" edge="1">
          <mxGeometry relative="1" as="geometry" />
        </mxCell>
        <mxCell id="zgKmjXe5RocedFzESMuj-102" value="&lt;font color=&quot;#000000&quot;&gt;List&amp;lt;Instance&amp;gt; instanceList = addIpAddresses(service, ephemeral, ips);&lt;/font&gt;" style="whiteSpace=wrap;html=1;fillColor=none;fontColor=#009900;rounded=0;gradientColor=none;" parent="1" vertex="1">
          <mxGeometry x="860" y="640" width="400" height="65" as="geometry" />
        </mxCell>
        <mxCell id="zgKmjXe5RocedFzESMuj-122" value="" style="edgeStyle=orthogonalEdgeStyle;rounded=0;orthogonalLoop=1;jettySize=auto;html=1;fontFamily=Helvetica;fontSize=12;fontColor=#000000;entryX=0.5;entryY=0;entryDx=0;entryDy=0;" parent="1" source="zgKmjXe5RocedFzESMuj-104" target="zgKmjXe5RocedFzESMuj-124" edge="1">
          <mxGeometry relative="1" as="geometry">
            <mxPoint x="1060" y="983.75" as="targetPoint" />
          </mxGeometry>
        </mxCell>
        <mxCell id="zgKmjXe5RocedFzESMuj-123" value="&lt;span style=&quot;font-size: 13.0667px&quot;&gt;&lt;font color=&quot;#ff0000&quot;&gt;mapConsistencyService(key)&lt;/font&gt;.put(key, value);&lt;/span&gt;" style="edgeLabel;html=1;align=center;verticalAlign=middle;resizable=0;points=[];fontSize=12;fontFamily=Helvetica;fontColor=#000000;" parent="zgKmjXe5RocedFzESMuj-122" vertex="1" connectable="0">
          <mxGeometry x="0.0954" relative="1" as="geometry">
            <mxPoint as="offset" />
          </mxGeometry>
        </mxCell>
        <mxCell id="zgKmjXe5RocedFzESMuj-104" value="&lt;font color=&quot;#ff0000&quot;&gt;DelegateConsistencyServiceImpl&lt;/font&gt;&lt;font color=&quot;#000000&quot;&gt;#put&lt;/font&gt;" style="whiteSpace=wrap;html=1;fillColor=none;fontColor=#009900;rounded=0;gradientColor=none;" parent="1" vertex="1">
          <mxGeometry x="915" y="800" width="290" height="60" as="geometry" />
        </mxCell>
        <mxCell id="zgKmjXe5RocedFzESMuj-112" style="edgeStyle=orthogonalEdgeStyle;rounded=0;orthogonalLoop=1;jettySize=auto;html=1;exitX=0.5;exitY=1;exitDx=0;exitDy=0;entryX=0.5;entryY=0;entryDx=0;entryDy=0;fontFamily=Helvetica;fontSize=12;fontColor=#FF0000;" parent="1" source="zgKmjXe5RocedFzESMuj-107" target="zgKmjXe5RocedFzESMuj-111" edge="1">
          <mxGeometry relative="1" as="geometry" />
        </mxCell>
        <mxCell id="zgKmjXe5RocedFzESMuj-107" value="&lt;font color=&quot;#000000&quot;&gt;String &lt;/font&gt;key&lt;font color=&quot;#000000&quot;&gt; = KeyBuilder.buildInstanceListKey(namespaceId, serviceName, ephemeral);&lt;/font&gt;" style="rounded=0;whiteSpace=wrap;html=1;fontFamily=Helvetica;fontSize=12;fontColor=#FF0000;fillColor=none;gradientColor=none;" parent="1" vertex="1">
          <mxGeometry x="820" y="400" width="480" height="60" as="geometry" />
        </mxCell>
        <mxCell id="zgKmjXe5RocedFzESMuj-113" style="edgeStyle=orthogonalEdgeStyle;rounded=0;orthogonalLoop=1;jettySize=auto;html=1;exitX=0.5;exitY=1;exitDx=0;exitDy=0;fontFamily=Helvetica;fontSize=12;fontColor=#FF0000;" parent="1" source="zgKmjXe5RocedFzESMuj-111" target="zgKmjXe5RocedFzESMuj-102" edge="1">
          <mxGeometry relative="1" as="geometry" />
        </mxCell>
        <mxCell id="zgKmjXe5RocedFzESMuj-114" value="key = com.alibaba.nacos.naming.iplist.ephemeral.{{namespaceId}}##{{serviceName}}" style="edgeLabel;html=1;align=center;verticalAlign=middle;resizable=0;points=[];fontSize=12;fontFamily=Helvetica;fontColor=#FF0000;" parent="zgKmjXe5RocedFzESMuj-113" vertex="1" connectable="0">
          <mxGeometry x="-0.0909" y="1" relative="1" as="geometry">
            <mxPoint y="14" as="offset" />
          </mxGeometry>
        </mxCell>
        <mxCell id="zgKmjXe5RocedFzESMuj-117" value="是" style="edgeLabel;html=1;align=center;verticalAlign=middle;resizable=0;points=[];fontSize=12;fontFamily=Helvetica;fontColor=#000000;" parent="zgKmjXe5RocedFzESMuj-113" vertex="1" connectable="0">
          <mxGeometry x="-0.5909" y="-2" relative="1" as="geometry">
            <mxPoint as="offset" />
          </mxGeometry>
        </mxCell>
        <mxCell id="zgKmjXe5RocedFzESMuj-115" style="edgeStyle=orthogonalEdgeStyle;rounded=0;orthogonalLoop=1;jettySize=auto;html=1;exitX=1;exitY=0.5;exitDx=0;exitDy=0;fontFamily=Helvetica;fontSize=12;fontColor=#FF0000;entryX=1;entryY=0.5;entryDx=0;entryDy=0;" parent="1" source="zgKmjXe5RocedFzESMuj-111" target="zgKmjXe5RocedFzESMuj-125" edge="1">
          <mxGeometry relative="1" as="geometry">
            <mxPoint x="1360" y="690" as="targetPoint" />
            <Array as="points">
              <mxPoint x="1360" y="525" />
              <mxPoint x="1360" y="758" />
            </Array>
          </mxGeometry>
        </mxCell>
        <mxCell id="zgKmjXe5RocedFzESMuj-116" value="key = com.alibaba.nacos.naming.iplist.{{namespaceId}}##{{serviceName}}" style="edgeLabel;html=1;align=center;verticalAlign=middle;resizable=0;points=[];fontSize=12;fontFamily=Helvetica;fontColor=#FF0000;" parent="zgKmjXe5RocedFzESMuj-115" vertex="1" connectable="0">
          <mxGeometry x="0.0756" y="-1" relative="1" as="geometry">
            <mxPoint x="-29" y="-73" as="offset" />
          </mxGeometry>
        </mxCell>
        <mxCell id="zgKmjXe5RocedFzESMuj-118" value="否" style="edgeLabel;html=1;align=center;verticalAlign=middle;resizable=0;points=[];fontSize=12;fontFamily=Helvetica;fontColor=#000000;" parent="zgKmjXe5RocedFzESMuj-115" vertex="1" connectable="0">
          <mxGeometry x="-0.7108" y="-1" relative="1" as="geometry">
            <mxPoint as="offset" />
          </mxGeometry>
        </mxCell>
        <mxCell id="zgKmjXe5RocedFzESMuj-111" value="是否是临时实例" style="rhombus;whiteSpace=wrap;html=1;fontFamily=Helvetica;fontSize=12;fontColor=#FF0000;fillColor=none;gradientColor=none;" parent="1" vertex="1">
          <mxGeometry x="985" y="490" width="150" height="70" as="geometry" />
        </mxCell>
        <mxCell id="zgKmjXe5RocedFzESMuj-129" value="" style="edgeStyle=orthogonalEdgeStyle;rounded=0;orthogonalLoop=1;jettySize=auto;html=1;fontFamily=Helvetica;fontSize=12;fontColor=#FF0000;" parent="1" source="zgKmjXe5RocedFzESMuj-124" target="zgKmjXe5RocedFzESMuj-128" edge="1">
          <mxGeometry relative="1" as="geometry" />
        </mxCell>
        <mxCell id="zgKmjXe5RocedFzESMuj-130" value="是" style="edgeLabel;html=1;align=center;verticalAlign=middle;resizable=0;points=[];fontSize=12;fontFamily=Helvetica;fontColor=#000000;" parent="zgKmjXe5RocedFzESMuj-129" vertex="1" connectable="0">
          <mxGeometry x="-0.225" relative="1" as="geometry">
            <mxPoint as="offset" />
          </mxGeometry>
        </mxCell>
        <mxCell id="zgKmjXe5RocedFzESMuj-124" value="是否临时实例" style="rhombus;whiteSpace=wrap;html=1;fontFamily=Helvetica;fontSize=12;fontColor=#FF0000;fillColor=none;gradientColor=none;" parent="1" vertex="1">
          <mxGeometry x="940" y="930" width="240" height="80" as="geometry" />
        </mxCell>
        <mxCell id="zgKmjXe5RocedFzESMuj-127" style="edgeStyle=orthogonalEdgeStyle;rounded=0;orthogonalLoop=1;jettySize=auto;html=1;exitX=0.5;exitY=1;exitDx=0;exitDy=0;entryX=0.5;entryY=0;entryDx=0;entryDy=0;fontFamily=Helvetica;fontSize=12;fontColor=#FF0000;" parent="1" source="zgKmjXe5RocedFzESMuj-125" target="zgKmjXe5RocedFzESMuj-104" edge="1">
          <mxGeometry relative="1" as="geometry" />
        </mxCell>
        <mxCell id="zgKmjXe5RocedFzESMuj-125" value="&lt;span style=&quot;color: rgb(0 , 0 , 0) ; background-color: rgb(255 , 255 , 255)&quot;&gt;consistencyService.put(key, instances);&lt;/span&gt;" style="text;html=1;strokeColor=none;fillColor=none;align=center;verticalAlign=middle;whiteSpace=wrap;rounded=0;fontFamily=Helvetica;fontSize=12;fontColor=#FF0000;" parent="1" vertex="1">
          <mxGeometry x="940" y="740" width="240" height="35" as="geometry" />
        </mxCell>
        <mxCell id="zgKmjXe5RocedFzESMuj-135" value="" style="edgeStyle=orthogonalEdgeStyle;rounded=0;orthogonalLoop=1;jettySize=auto;html=1;fontFamily=Helvetica;fontSize=12;fontColor=#000000;dashed=1;" parent="1" source="zgKmjXe5RocedFzESMuj-128" target="zgKmjXe5RocedFzESMuj-134" edge="1">
          <mxGeometry relative="1" as="geometry" />
        </mxCell>
        <mxCell id="zgKmjXe5RocedFzESMuj-136" value="implements" style="edgeLabel;html=1;align=center;verticalAlign=middle;resizable=0;points=[];fontSize=12;fontFamily=Helvetica;fontColor=#000000;" parent="zgKmjXe5RocedFzESMuj-135" vertex="1" connectable="0">
          <mxGeometry x="-0.0492" y="-2" relative="1" as="geometry">
            <mxPoint as="offset" />
          </mxGeometry>
        </mxCell>
        <mxCell id="i_V08WtguQDwfHYmfHOG-2" value="" style="edgeStyle=orthogonalEdgeStyle;rounded=0;orthogonalLoop=1;jettySize=auto;html=1;" parent="1" source="zgKmjXe5RocedFzESMuj-128" target="i_V08WtguQDwfHYmfHOG-1" edge="1">
          <mxGeometry relative="1" as="geometry" />
        </mxCell>
        <mxCell id="i_V08WtguQDwfHYmfHOG-3" value="onPut(key, value);" style="edgeLabel;html=1;align=center;verticalAlign=middle;resizable=0;points=[];" parent="i_V08WtguQDwfHYmfHOG-2" vertex="1" connectable="0">
          <mxGeometry x="-0.15" y="-1" relative="1" as="geometry">
            <mxPoint as="offset" />
          </mxGeometry>
        </mxCell>
        <mxCell id="zgKmjXe5RocedFzESMuj-128" value="DistroConsistencyServiceImpl&lt;font color=&quot;#000000&quot;&gt;.put(key, value);&lt;br&gt;&lt;/font&gt;" style="whiteSpace=wrap;html=1;fillColor=none;fontColor=#FF0000;gradientColor=none;strokeColor=#000000;" parent="1" vertex="1">
          <mxGeometry x="927.5" y="1060" width="265" height="60" as="geometry" />
        </mxCell>
        <mxCell id="zgKmjXe5RocedFzESMuj-134" value="&lt;span style=&quot;color: rgb(0 , 0 , 0)&quot;&gt;EphemeralConsistencyService&lt;/span&gt;" style="whiteSpace=wrap;html=1;fillColor=none;strokeColor=#000000;fontColor=#FF0000;gradientColor=none;dashed=1;" parent="1" vertex="1">
          <mxGeometry x="632" y="1060" width="195" height="60" as="geometry" />
        </mxCell>
        <mxCell id="2PmmHMX1RF9NsNLcKvbn-5" value="" style="edgeStyle=orthogonalEdgeStyle;rounded=0;orthogonalLoop=1;jettySize=auto;html=1;fontColor=#FF0000;" edge="1" parent="1" source="i_V08WtguQDwfHYmfHOG-1" target="2PmmHMX1RF9NsNLcKvbn-4">
          <mxGeometry relative="1" as="geometry" />
        </mxCell>
        <mxCell id="2PmmHMX1RF9NsNLcKvbn-28" style="edgeStyle=orthogonalEdgeStyle;rounded=0;orthogonalLoop=1;jettySize=auto;html=1;exitX=0;exitY=0.5;exitDx=0;exitDy=0;entryX=0;entryY=0.5;entryDx=0;entryDy=0;dashed=1;dashPattern=1 1;fontColor=#3399FF;" edge="1" parent="1" source="i_V08WtguQDwfHYmfHOG-1" target="2PmmHMX1RF9NsNLcKvbn-25">
          <mxGeometry relative="1" as="geometry">
            <Array as="points">
              <mxPoint x="600" y="1220" />
              <mxPoint x="600" y="1652" />
            </Array>
          </mxGeometry>
        </mxCell>
        <mxCell id="i_V08WtguQDwfHYmfHOG-1" value="&lt;font color=&quot;#3399ff&quot;&gt;dataStore.put(key, datum);&lt;/font&gt;&lt;br&gt;&lt;font color=&quot;#000000&quot;&gt;加入到 dataMap 中&lt;/font&gt;&lt;br&gt;&lt;span style=&quot;color: rgb(0 , 0 , 0)&quot;&gt;datum 是 instances&lt;/span&gt;&lt;font color=&quot;#000000&quot;&gt;&lt;br&gt;&lt;/font&gt;" style="whiteSpace=wrap;html=1;fillColor=none;strokeColor=#000000;fontColor=#FF0000;gradientColor=none;" parent="1" vertex="1">
          <mxGeometry x="970" y="1190" width="180" height="60" as="geometry" />
        </mxCell>
        <mxCell id="2PmmHMX1RF9NsNLcKvbn-24" style="edgeStyle=orthogonalEdgeStyle;rounded=0;orthogonalLoop=1;jettySize=auto;html=1;exitX=0;exitY=0.5;exitDx=0;exitDy=0;entryX=1;entryY=0.5;entryDx=0;entryDy=0;fontColor=#000000;dashed=1;dashPattern=1 1;" edge="1" parent="1" source="2PmmHMX1RF9NsNLcKvbn-1" target="2PmmHMX1RF9NsNLcKvbn-22">
          <mxGeometry relative="1" as="geometry" />
        </mxCell>
        <mxCell id="2PmmHMX1RF9NsNLcKvbn-1" value="&lt;font color=&quot;#000000&quot;&gt;consistencyService .&lt;/font&gt;&lt;font color=&quot;#ff0000&quot;&gt;listen&lt;/font&gt;&lt;font color=&quot;#000000&quot;&gt;(key, service);&lt;/font&gt;" style="whiteSpace=wrap;html=1;fillColor=none;fontColor=#009900;rounded=0;gradientColor=none;" vertex="1" parent="1">
          <mxGeometry x="1502.5" y="1040" width="245" height="60" as="geometry" />
        </mxCell>
        <mxCell id="2PmmHMX1RF9NsNLcKvbn-19" value="" style="edgeStyle=orthogonalEdgeStyle;rounded=0;orthogonalLoop=1;jettySize=auto;html=1;fontColor=#000000;" edge="1" parent="1" source="2PmmHMX1RF9NsNLcKvbn-4" target="2PmmHMX1RF9NsNLcKvbn-18">
          <mxGeometry relative="1" as="geometry" />
        </mxCell>
        <mxCell id="2PmmHMX1RF9NsNLcKvbn-20" style="edgeStyle=orthogonalEdgeStyle;rounded=0;orthogonalLoop=1;jettySize=auto;html=1;exitX=0.5;exitY=1;exitDx=0;exitDy=0;entryX=0.5;entryY=0;entryDx=0;entryDy=0;dashed=1;fontColor=#000000;" edge="1" parent="1" source="2PmmHMX1RF9NsNLcKvbn-4" target="2PmmHMX1RF9NsNLcKvbn-6">
          <mxGeometry relative="1" as="geometry" />
        </mxCell>
        <mxCell id="2PmmHMX1RF9NsNLcKvbn-21" value="run();" style="edgeLabel;html=1;align=center;verticalAlign=middle;resizable=0;points=[];fontColor=#000000;" vertex="1" connectable="0" parent="2PmmHMX1RF9NsNLcKvbn-20">
          <mxGeometry x="-0.28" y="-2" relative="1" as="geometry">
            <mxPoint as="offset" />
          </mxGeometry>
        </mxCell>
        <mxCell id="2PmmHMX1RF9NsNLcKvbn-4" value="&lt;font color=&quot;#000000&quot;&gt;notifier.addTask(key, DataOperation.CHANGE);&lt;br&gt;添加一个 CHANGE 消息给线程&lt;br&gt;&lt;/font&gt;" style="whiteSpace=wrap;html=1;fillColor=none;strokeColor=#000000;fontColor=#FF0000;gradientColor=none;" vertex="1" parent="1">
          <mxGeometry x="925" y="1300" width="270" height="60" as="geometry" />
        </mxCell>
        <mxCell id="2PmmHMX1RF9NsNLcKvbn-23" value="" style="edgeStyle=orthogonalEdgeStyle;rounded=0;orthogonalLoop=1;jettySize=auto;html=1;fontColor=#000000;" edge="1" parent="1" source="2PmmHMX1RF9NsNLcKvbn-6" target="2PmmHMX1RF9NsNLcKvbn-22">
          <mxGeometry relative="1" as="geometry" />
        </mxCell>
        <mxCell id="2PmmHMX1RF9NsNLcKvbn-6" value="&lt;font color=&quot;#000000&quot;&gt;Pair&amp;lt;String, DataOperation&amp;gt; pair = tasks.take();&lt;br&gt;&lt;/font&gt;handle(pair);" style="whiteSpace=wrap;html=1;fillColor=none;strokeColor=#000000;fontColor=#FF0000;gradientColor=none;" vertex="1" parent="1">
          <mxGeometry x="920" y="1410" width="280" height="60" as="geometry" />
        </mxCell>
        <mxCell id="2PmmHMX1RF9NsNLcKvbn-18" value="tasks.offer(Pair.with(datumKey, action));" style="whiteSpace=wrap;html=1;fillColor=none;strokeColor=#000000;fontColor=#FF0000;gradientColor=none;" vertex="1" parent="1">
          <mxGeometry x="640" y="1300" width="240" height="60" as="geometry" />
        </mxCell>
        <mxCell id="2PmmHMX1RF9NsNLcKvbn-26" value="" style="edgeStyle=orthogonalEdgeStyle;rounded=0;orthogonalLoop=1;jettySize=auto;html=1;fontColor=#000000;" edge="1" parent="1" source="2PmmHMX1RF9NsNLcKvbn-22" target="2PmmHMX1RF9NsNLcKvbn-25">
          <mxGeometry relative="1" as="geometry" />
        </mxCell>
        <mxCell id="2PmmHMX1RF9NsNLcKvbn-27" value="action == DataOperation.CHANGE" style="edgeLabel;html=1;align=center;verticalAlign=middle;resizable=0;points=[];fontColor=#000000;" vertex="1" connectable="0" parent="2PmmHMX1RF9NsNLcKvbn-26">
          <mxGeometry x="-0.05" relative="1" as="geometry">
            <mxPoint as="offset" />
          </mxGeometry>
        </mxCell>
        <mxCell id="2PmmHMX1RF9NsNLcKvbn-22" value="获取所有的 listener" style="whiteSpace=wrap;html=1;fillColor=none;strokeColor=#000000;fontColor=#FF0000;gradientColor=none;" vertex="1" parent="1">
          <mxGeometry x="1000" y="1510" width="120" height="60" as="geometry" />
        </mxCell>
        <mxCell id="2PmmHMX1RF9NsNLcKvbn-30" value="" style="edgeStyle=orthogonalEdgeStyle;rounded=0;orthogonalLoop=1;jettySize=auto;html=1;fontColor=#3399FF;" edge="1" parent="1" source="2PmmHMX1RF9NsNLcKvbn-25" target="2PmmHMX1RF9NsNLcKvbn-29">
          <mxGeometry relative="1" as="geometry" />
        </mxCell>
        <mxCell id="2PmmHMX1RF9NsNLcKvbn-31" value="核心注册/更新逻辑" style="edgeLabel;html=1;align=center;verticalAlign=middle;resizable=0;points=[];fontColor=#FF0000;" vertex="1" connectable="0" parent="2PmmHMX1RF9NsNLcKvbn-30">
          <mxGeometry x="-0.12" y="1" relative="1" as="geometry">
            <mxPoint as="offset" />
          </mxGeometry>
        </mxCell>
        <mxCell id="2PmmHMX1RF9NsNLcKvbn-25" value="&lt;font color=&quot;#000000&quot;&gt;listener.onChange(datumKey, &lt;/font&gt;&lt;font color=&quot;#3399ff&quot;&gt;dataStore.get(datumKey).value&lt;/font&gt;&lt;font color=&quot;#000000&quot;&gt;);&lt;br&gt;其实就是：Service.onChange(key, instances)&lt;br&gt;&lt;/font&gt;" style="whiteSpace=wrap;html=1;fillColor=none;strokeColor=#000000;fontColor=#FF0000;gradientColor=none;" vertex="1" parent="1">
          <mxGeometry x="875" y="1624" width="370" height="56" as="geometry" />
        </mxCell>
        <mxCell id="2PmmHMX1RF9NsNLcKvbn-33" value="" style="edgeStyle=orthogonalEdgeStyle;rounded=0;orthogonalLoop=1;jettySize=auto;html=1;fontColor=#FF0000;" edge="1" parent="1" source="2PmmHMX1RF9NsNLcKvbn-29" target="2PmmHMX1RF9NsNLcKvbn-32">
          <mxGeometry relative="1" as="geometry" />
        </mxCell>
        <mxCell id="2PmmHMX1RF9NsNLcKvbn-29" value="updateIPs&lt;font color=&quot;#000000&quot;&gt;(value.getInstanceList(), KeyBuilder.matchEphemeralInstanceListKey(key));&lt;/font&gt;" style="whiteSpace=wrap;html=1;fillColor=none;strokeColor=#000000;fontColor=#FF0000;gradientColor=none;" vertex="1" parent="1">
          <mxGeometry x="815" y="1730" width="490" height="62" as="geometry" />
        </mxCell>
        <mxCell id="2PmmHMX1RF9NsNLcKvbn-35" value="" style="edgeStyle=orthogonalEdgeStyle;rounded=0;orthogonalLoop=1;jettySize=auto;html=1;fontColor=#000000;" edge="1" parent="1" source="2PmmHMX1RF9NsNLcKvbn-32" target="2PmmHMX1RF9NsNLcKvbn-34">
          <mxGeometry relative="1" as="geometry" />
        </mxCell>
        <mxCell id="2PmmHMX1RF9NsNLcKvbn-36" value="Cluster#updateIps" style="edgeLabel;html=1;align=center;verticalAlign=middle;resizable=0;points=[];fontColor=#000000;" vertex="1" connectable="0" parent="2PmmHMX1RF9NsNLcKvbn-35">
          <mxGeometry x="-0.0828" y="2" relative="1" as="geometry">
            <mxPoint as="offset" />
          </mxGeometry>
        </mxCell>
        <mxCell id="2PmmHMX1RF9NsNLcKvbn-32" value="&lt;font color=&quot;#000000&quot;&gt;clusterMap.get(entry.getKey()).updateIps(entryIPs, ephemeral);&lt;/font&gt;" style="whiteSpace=wrap;html=1;fillColor=none;strokeColor=#000000;fontColor=#FF0000;gradientColor=none;" vertex="1" parent="1">
          <mxGeometry x="875" y="1830" width="370" height="57" as="geometry" />
        </mxCell>
        <mxCell id="2PmmHMX1RF9NsNLcKvbn-34" value="" style="whiteSpace=wrap;html=1;fillColor=none;strokeColor=#000000;fontColor=#FF0000;gradientColor=none;" vertex="1" parent="1">
          <mxGeometry x="1000" y="1960" width="120" height="60" as="geometry" />
        </mxCell>
      </root>
    </mxGraphModel>
  </diagram>
</mxfile>
